<mxfile host="app.diagrams.net" modified="2023-04-03T10:18:35.866Z" agent="Mozilla/5.0 (X11; Ubuntu; Linux x86_64; rv:109.0) Gecko/20100101 Firefox/111.0" etag="vQMHVr88KITZtgQMeMXw" version="21.1.2" type="device">
  <diagram id="lH5TAhaRc6MbaTd2RAH-" name="Page-1">
    <mxGraphModel dx="1364" dy="751" grid="1" gridSize="10" guides="1" tooltips="1" connect="1" arrows="1" fold="1" page="1" pageScale="1" pageWidth="850" pageHeight="1100" math="0" shadow="0">
      <root>
        <mxCell id="0" />
        <mxCell id="1" parent="0" />
        <mxCell id="QqCz5LZArP6gdW8ez53t-2" value="Commecial&lt;br&gt;" style="shape=umlLifeline;participant=umlActor;perimeter=lifelinePerimeter;whiteSpace=wrap;html=1;container=1;collapsible=0;recursiveResize=0;verticalAlign=top;spacingTop=36;labelBackgroundColor=#ffffff;outlineConnect=0;" parent="1" vertex="1">
          <mxGeometry x="140" y="100" width="20" height="250" as="geometry" />
        </mxCell>
        <mxCell id="QqCz5LZArP6gdW8ez53t-3" value="Système" style="shape=umlLifeline;perimeter=lifelinePerimeter;whiteSpace=wrap;html=1;container=1;collapsible=0;recursiveResize=0;outlineConnect=0;" parent="1" vertex="1">
          <mxGeometry x="465" y="105" width="100" height="245" as="geometry" />
        </mxCell>
        <mxCell id="QqCz5LZArP6gdW8ez53t-5" value="Saisit la référence client" style="html=1;verticalAlign=bottom;endArrow=block;" parent="1" source="QqCz5LZArP6gdW8ez53t-2" edge="1">
          <mxGeometry x="0.058" y="10" width="80" relative="1" as="geometry">
            <mxPoint x="130" y="180" as="sourcePoint" />
            <mxPoint x="508" y="200" as="targetPoint" />
            <Array as="points">
              <mxPoint x="230" y="200" />
              <mxPoint x="310" y="200" />
            </Array>
            <mxPoint x="-1" as="offset" />
          </mxGeometry>
        </mxCell>
        <mxCell id="QqCz5LZArP6gdW8ez53t-6" value="" style="html=1;verticalAlign=bottom;endArrow=open;dashed=1;endSize=8;" parent="1" source="QqCz5LZArP6gdW8ez53t-3" target="QqCz5LZArP6gdW8ez53t-2" edge="1">
          <mxGeometry x="0.1192" y="110" relative="1" as="geometry">
            <mxPoint x="260" y="310" as="sourcePoint" />
            <mxPoint x="180" y="310" as="targetPoint" />
            <Array as="points">
              <mxPoint x="300" y="270" />
            </Array>
            <mxPoint as="offset" />
          </mxGeometry>
        </mxCell>
        <mxCell id="QqCz5LZArP6gdW8ez53t-4" value="" style="html=1;points=[];perimeter=orthogonalPerimeter;" parent="1" vertex="1">
          <mxGeometry x="510" y="160" width="10" height="160" as="geometry" />
        </mxCell>
        <mxCell id="QqCz5LZArP6gdW8ez53t-16" value="Message d&#39;erreur" style="text;html=1;align=center;verticalAlign=middle;resizable=0;points=[];autosize=1;" parent="1" vertex="1">
          <mxGeometry x="290" y="240" width="110" height="20" as="geometry" />
        </mxCell>
        <mxCell id="QqCz5LZArP6gdW8ez53t-24" value="Contrôle de la référence" style="html=1;verticalAlign=bottom;endArrow=open;dashed=1;endSize=8;exitX=0.933;exitY=0.263;exitDx=0;exitDy=0;exitPerimeter=0;entryX=1;entryY=0.688;entryDx=0;entryDy=0;entryPerimeter=0;" parent="1" source="QqCz5LZArP6gdW8ez53t-4" target="QqCz5LZArP6gdW8ez53t-4" edge="1">
          <mxGeometry x="0.364" y="-36" relative="1" as="geometry">
            <mxPoint x="390" y="230" as="sourcePoint" />
            <mxPoint x="310" y="230" as="targetPoint" />
            <Array as="points">
              <mxPoint x="580" y="202" />
              <mxPoint x="580" y="270" />
            </Array>
            <mxPoint x="30" y="16" as="offset" />
          </mxGeometry>
        </mxCell>
      </root>
    </mxGraphModel>
  </diagram>
</mxfile>
